<svg width="141" height="16" viewBox="0 0 141 16" fill="none" xmlns="http://www.w3.org/2000/svg">
<path d="M4.23828 0.625C6.16536 0.625 7.66276 1.25 8.73047 2.5C9.8112 3.73698 10.3516 5.52083 10.3516 7.85156C10.3516 9.33594 10.1042 10.6315 9.60938 11.7383C9.1276 12.8451 8.41797 13.7044 7.48047 14.3164C6.55599 14.9154 5.44271 15.2148 4.14062 15.2148C3.34635 15.2148 2.6237 15.1172 1.97266 14.9219C1.32161 14.7266 0.800781 14.4531 0.410156 14.1016L1.26953 12.168C2.14193 12.6237 3.0599 12.8516 4.02344 12.8516C5.0651 12.8516 5.88542 12.513 6.48438 11.8359C7.08333 11.1589 7.45443 10.1888 7.59766 8.92578H2.57812V6.60156H7.59766C7.46745 5.39062 7.11589 4.47917 6.54297 3.86719C5.98307 3.25521 5.22135 2.94922 4.25781 2.94922C3.38542 2.94922 2.42188 3.20312 1.36719 3.71094L0.527344 1.75781C1.00911 1.39323 1.57552 1.11328 2.22656 0.917969C2.8776 0.722656 3.54818 0.625 4.23828 0.625ZM17.8516 15.2148C15.8724 15.2148 14.3424 14.6094 13.2617 13.3984C12.181 12.1745 11.6406 10.4492 11.6406 8.22266C11.6406 6.66016 11.8815 5.3125 12.3633 4.17969C12.8581 3.03385 13.5612 2.15495 14.4727 1.54297C15.3971 0.93099 16.4909 0.625 17.7539 0.625C18.444 0.625 19.1146 0.722656 19.7656 0.917969C20.4167 1.11328 20.9831 1.39323 21.4648 1.75781L20.625 3.71094C19.5703 3.20312 18.6068 2.94922 17.7344 2.94922C16.6536 2.94922 15.8138 3.39193 15.2148 4.27734C14.6289 5.16276 14.3359 6.41276 14.3359 8.02734C14.3359 11.2435 15.5469 12.8516 17.9688 12.8516C18.9323 12.8516 19.8503 12.6237 20.7227 12.168L21.582 14.1016C21.1914 14.4531 20.6706 14.7266 20.0195 14.9219C19.3685 15.1172 18.6458 15.2148 17.8516 15.2148ZM27.4219 10.1562L25.0586 15H22.168L26.0547 7.83203L22.3047 0.859375H25.2344L27.5391 5.46875L29.7852 0.859375H32.6758L28.9062 7.8125L32.8125 15H29.8828L27.4219 10.1562ZM41.4062 11.9141H36.7969L35.9766 15H33.2422L37.6953 0.859375H40.5469L45 15H42.2461L41.4062 11.9141ZM37.4023 9.66797H40.8008L39.082 3.37891L37.4023 9.66797ZM47.5781 3.18359H44.2969V0.859375H53.4766V3.18359H50.1953V15H47.5781V3.18359ZM60.9375 11.9141H56.3281L55.5078 15H52.7734L57.2266 0.859375H60.0781L64.5312 15H61.7773L60.9375 11.9141ZM56.9336 9.66797H60.332L58.6133 3.37891L56.9336 9.66797ZM73.418 8.41797C73.3268 9.75911 73.138 10.8464 72.8516 11.6797C72.5781 12.5 72.1615 13.1901 71.6016 13.75C71.0417 14.3099 70.2604 14.8438 69.2578 15.3516L68.0273 13.0273C68.7044 12.6367 69.2188 12.2656 69.5703 11.9141C69.9219 11.5625 70.1888 11.1068 70.3711 10.5469C70.5534 9.98698 70.6836 9.19922 70.7617 8.18359L71.2695 0.859375H79.5508V15H76.9336V3.18359H73.7891L73.418 8.41797ZM84.9805 10.4102L90.332 0.859375H92.8516V15H90.2344V5.42969L84.8828 15H82.3633V0.859375H84.9805V10.4102ZM101.719 7.48047C103.411 8.01432 104.258 9.1276 104.258 10.8203C104.258 11.7969 104.004 12.6172 103.496 13.2812C103.001 13.9453 102.331 14.4401 101.484 14.7656C100.651 15.0781 99.7266 15.2344 98.7109 15.2344C97.0182 15.2344 95.5599 14.8568 94.3359 14.1016L95.2734 12.0703C96.3802 12.6432 97.4674 12.9297 98.5352 12.9297C99.4857 12.9297 100.228 12.7409 100.762 12.3633C101.296 11.9727 101.562 11.4193 101.562 10.7031C101.562 10 101.348 9.50521 100.918 9.21875C100.488 8.91927 99.8828 8.76953 99.1016 8.76953H96.7383V6.64062H98.9453C99.6484 6.64062 100.176 6.47135 100.527 6.13281C100.879 5.79427 101.055 5.35156 101.055 4.80469C101.055 4.16667 100.833 3.6849 100.391 3.35938C99.9609 3.02083 99.3685 2.85156 98.6133 2.85156C97.6628 2.85156 96.6862 3.11198 95.6836 3.63281L94.8438 1.66016C95.5078 1.29557 96.1458 1.03516 96.7578 0.878906C97.3828 0.709635 98.0664 0.625 98.8086 0.625C100.28 0.625 101.465 0.94401 102.363 1.58203C103.275 2.22005 103.73 3.16406 103.73 4.41406C103.73 5.85938 103.06 6.88151 101.719 7.48047ZM108.73 10.4102L114.082 0.859375H116.602V15H113.984V5.42969L108.633 15H106.113V0.859375H108.73V10.4102ZM126.875 8.96484H122.031V15H119.414V0.859375H122.031V6.66016H126.875V0.859375H129.492V15H126.875V8.96484ZM134.922 15H132.305V0.859375H140.293V3.16406H134.922V15Z" fill="#3648A6"/>
</svg>
