<svg width="14" height="13" viewBox="0 0 14 13" fill="none" xmlns="http://www.w3.org/2000/svg">
<path d="M5.92027 0C2.65116 0 0 2.44631 0 5.46282C0 8.48137 2.65116 10.9277 5.92027 10.9277C7.13178 10.9277 8.25692 10.5905 9.19601 10.0141L12.4806 13L14 11.598L10.7375 8.63261C11.4308 7.73951 11.8405 6.64613 11.8405 5.46486C11.8427 2.44631 9.19158 0 5.92027 0ZM6.00221 9.30498C3.70321 9.30498 1.83832 7.58623 1.83832 5.46282C1.83832 3.34146 3.70321 1.62066 6.00221 1.62066C8.30122 1.62066 10.1661 3.33941 10.1661 5.46282C10.1639 7.58623 8.30122 9.30498 6.00221 9.30498Z" fill="#616E7D"/>
</svg>
